<svg width="1280" height="640" viewBox="0 0 1280 640" fill="none" xmlns="http://www.w3.org/2000/svg">
<rect width="1280" height="640" fill="#36B37E"/>
<path d="M470.17 570C469.245 568.197 468.575 565.955 468.159 563.274C463.306 568.683 456.996 571.387 449.23 571.387C441.881 571.387 435.779 569.26 430.926 565.008C426.118 560.755 423.715 555.393 423.715 548.922C423.715 540.971 426.65 534.87 432.521 530.617C438.437 526.365 446.965 524.215 458.105 524.169H467.327V519.87C467.327 516.403 466.426 513.63 464.623 511.55C462.867 509.47 460.07 508.43 456.233 508.43C452.859 508.43 450.201 509.239 448.26 510.856C446.365 512.474 445.417 514.693 445.417 517.513H425.379C425.379 513.168 426.719 509.146 429.4 505.448C432.081 501.75 435.872 498.861 440.771 496.781C445.671 494.655 451.172 493.592 457.273 493.592C466.518 493.592 473.845 495.926 479.253 500.595C484.707 505.217 487.435 511.735 487.435 520.147V552.666C487.481 559.785 488.475 565.17 490.416 568.821V570H470.17ZM453.599 556.063C456.557 556.063 459.284 555.416 461.78 554.122C464.276 552.782 466.125 551.002 467.327 548.783V535.887H459.839C449.808 535.887 444.469 539.354 443.822 546.287L443.753 547.466C443.753 549.962 444.631 552.019 446.388 553.637C448.144 555.255 450.548 556.063 453.599 556.063ZM521.617 494.979L522.241 503.368C527.557 496.851 534.745 493.592 543.805 493.592C553.465 493.592 560.099 497.405 563.704 505.032C568.974 497.405 576.485 493.592 586.238 493.592C594.374 493.592 600.429 495.972 604.404 500.733C608.38 505.448 610.367 512.567 610.367 522.089V570H590.26V522.158C590.26 517.906 589.428 514.809 587.764 512.867C586.1 510.88 583.164 509.886 578.958 509.886C572.949 509.886 568.789 512.752 566.478 518.483L566.547 570H546.509V522.228C546.509 517.882 545.654 514.739 543.943 512.798C542.233 510.856 539.321 509.886 535.207 509.886C529.521 509.886 525.408 512.243 522.865 516.958V570H502.827V494.979H521.617ZM644.619 494.979L645.243 503.368C650.559 496.851 657.747 493.592 666.807 493.592C676.467 493.592 683.101 497.405 686.706 505.032C691.976 497.405 699.487 493.592 709.24 493.592C717.376 493.592 723.431 495.972 727.406 500.733C731.382 505.448 733.369 512.567 733.369 522.089V570H713.262V522.158C713.262 517.906 712.43 514.809 710.766 512.867C709.102 510.88 706.166 509.886 701.96 509.886C695.951 509.886 691.791 512.752 689.479 518.483L689.549 570H669.511V522.228C669.511 517.882 668.656 514.739 666.945 512.798C665.235 510.856 662.323 509.886 658.209 509.886C652.523 509.886 648.41 512.243 645.867 516.958V570H625.829V494.979H644.619ZM769.979 570H749.871V494.979H769.979V570ZM748.692 475.564C748.692 472.56 749.686 470.087 751.674 468.146C753.708 466.204 756.458 465.233 759.925 465.233C763.345 465.233 766.073 466.204 768.106 468.146C770.14 470.087 771.157 472.56 771.157 475.564C771.157 478.615 770.117 481.111 768.037 483.053C766.003 484.994 763.299 485.965 759.925 485.965C756.55 485.965 753.823 484.994 751.743 483.053C749.709 481.111 748.692 478.615 748.692 475.564ZM783.43 531.796C783.43 524.354 784.863 517.721 787.729 511.896C790.594 506.072 794.708 501.565 800.07 498.376C805.479 495.187 811.742 493.592 818.86 493.592C828.983 493.592 837.234 496.689 843.613 502.883C850.038 509.077 853.621 517.49 854.36 528.121L854.499 533.252C854.499 544.762 851.286 554.007 844.861 560.986C838.436 567.92 829.815 571.387 818.999 571.387C808.183 571.387 799.539 567.92 793.067 560.986C786.642 554.053 783.43 544.623 783.43 532.697V531.796ZM803.468 533.252C803.468 540.37 804.808 545.825 807.489 549.615C810.17 553.359 814.007 555.231 818.999 555.231C823.853 555.231 827.643 553.382 830.37 549.685C833.097 545.94 834.461 539.978 834.461 531.796C834.461 524.816 833.097 519.408 830.37 515.571C827.643 511.735 823.806 509.816 818.86 509.816C813.961 509.816 810.17 511.735 807.489 515.571C804.808 519.362 803.468 525.255 803.468 533.252Z" fill="white"/>
<path d="M419 441C419 439.343 420.343 438 422 438H482C483.657 438 485 439.343 485 441V465C485 466.657 483.657 468 482 468H422C420.343 468 419 466.657 419 465V441Z" fill="white" fill-opacity="0.2"/>
<path d="M431.27 459V446.203H435.752C437.305 446.203 438.482 446.502 439.285 447.1C440.088 447.691 440.489 448.562 440.489 449.71C440.489 450.337 440.328 450.891 440.006 451.371C439.684 451.846 439.235 452.194 438.661 452.417C439.317 452.581 439.833 452.912 440.208 453.41C440.589 453.908 440.779 454.518 440.779 455.238C440.779 456.469 440.387 457.4 439.602 458.033C438.816 458.666 437.697 458.988 436.244 459H431.27ZM433.906 453.428V456.882H436.165C436.786 456.882 437.27 456.735 437.615 456.442C437.967 456.144 438.143 455.733 438.143 455.212C438.143 454.04 437.536 453.445 436.323 453.428H433.906ZM433.906 451.564H435.857C437.188 451.541 437.853 451.011 437.853 449.974C437.853 449.394 437.683 448.978 437.343 448.726C437.009 448.468 436.479 448.339 435.752 448.339H433.906V451.564ZM450.381 453.454H445.318V456.882H451.26V459H442.682V446.203H451.242V448.339H445.318V451.389H450.381V453.454ZM462.531 448.339H458.611V459H455.975V448.339H452.107V446.203H462.531V448.339ZM470.129 456.363H465.506L464.627 459H461.823L466.587 446.203H469.03L473.82 459H471.017L470.129 456.363ZM466.218 454.228H469.417L467.809 449.438L466.218 454.228Z" fill="white"/>
<rect x="562" y="197" width="47" height="217" rx="23.5" fill="white" fill-opacity="0.7"/>
<rect x="508" y="286" width="47" height="128" rx="23.5" fill="white" fill-opacity="0.6"/>
<rect x="670" y="100" width="47" height="128" rx="23.5" fill="white"/>
<rect x="724" y="159" width="47" height="158" rx="23.5" fill="white"/>
<rect x="616" y="100" width="47" height="217" rx="23.5" fill="white" fill-opacity="0.8"/>
</svg>
